<svg width="33" height="22" viewBox="0 0 33 22" fill="none" xmlns="http://www.w3.org/2000/svg">
<path d="M1.83333 22H31.1667C32.175 22 33 21.175 33 20.1667C33 19.1583 32.175 18.3333 31.1667 18.3333H1.83333C0.825 18.3333 0 19.1583 0 20.1667C0 21.175 0.825 22 1.83333 22ZM1.83333 12.8333H31.1667C32.175 12.8333 33 12.0083 33 11C33 9.99167 32.175 9.16667 31.1667 9.16667H1.83333C0.825 9.16667 0 9.99167 0 11C0 12.0083 0.825 12.8333 1.83333 12.8333ZM0 1.83333C0 2.84167 0.825 3.66667 1.83333 3.66667H31.1667C32.175 3.66667 33 2.84167 33 1.83333C33 0.825 32.175 0 31.1667 0H1.83333C0.825 0 0 0.825 0 1.83333Z" fill="#146C4A"/>
</svg>
