<svg width="27" height="27" viewBox="0 0 27 27" fill="none" xmlns="http://www.w3.org/2000/svg">
<path d="M13.5 0C10.83 0 8.21987 0.791761 5.99981 2.27516C3.77974 3.75856 2.04942 5.86697 1.02763 8.33377C0.0058493 10.8006 -0.261496 13.515 0.259405 16.1337C0.780305 18.7525 2.06606 21.1579 3.95406 23.0459C5.84207 24.9339 8.24754 26.2197 10.8663 26.7406C13.485 27.2615 16.1994 26.9942 18.6662 25.9724C21.133 24.9506 23.2414 23.2203 24.7248 21.0002C26.2082 18.7801 27 16.17 27 13.5C26.996 9.9208 25.5724 6.48933 23.0415 3.95845C20.5107 1.42758 17.0792 0.00398058 13.5 0ZM13.5 24.3C11.364 24.3 9.2759 23.6666 7.49985 22.4799C5.72379 21.2931 4.33953 19.6064 3.52211 17.633C2.70468 15.6595 2.4908 13.488 2.90752 11.393C3.32425 9.29803 4.35284 7.37365 5.86325 5.86325C7.37366 4.35284 9.29803 3.32424 11.393 2.90752C13.488 2.4908 15.6595 2.70467 17.633 3.5221C19.6064 4.33953 21.2932 5.72379 22.4799 7.49984C23.6666 9.27589 24.3 11.364 24.3 13.5C24.2967 16.3633 23.1578 19.1084 21.1331 21.1331C19.1085 23.1578 16.3633 24.2967 13.5 24.3ZM13.5 12.825C13.142 12.825 12.7986 12.9672 12.5454 13.2204C12.2922 13.4736 12.15 13.817 12.15 14.175V18.225C12.15 18.583 12.2922 18.9264 12.5454 19.1796C12.7986 19.4328 13.142 19.575 13.5 19.575C13.858 19.575 14.2014 19.4328 14.4546 19.1796C14.7078 18.9264 14.85 18.583 14.85 18.225V14.175C14.85 13.817 14.7078 13.4736 14.4546 13.2204C14.2014 12.9672 13.858 12.825 13.5 12.825ZM13.5 7.425C13.1662 7.425 12.84 7.52397 12.5625 7.70939C12.285 7.89482 12.0687 8.15837 11.941 8.46672C11.8132 8.77507 11.7798 9.11437 11.8449 9.44171C11.91 9.76906 12.0708 10.0697 12.3068 10.3057C12.5428 10.5417 12.8434 10.7025 13.1708 10.7676C13.4981 10.8327 13.8374 10.7993 14.1458 10.6715C14.4541 10.5438 14.7177 10.3275 14.9031 10.05C15.0885 9.77251 15.1875 9.44625 15.1875 9.1125C15.1875 8.66495 15.0097 8.23572 14.6932 7.91926C14.3768 7.60279 13.9476 7.425 13.5 7.425Z" fill="#146C4A"/>
</svg>
