<svg width="29" height="29" viewBox="0 0 29 29" fill="none" xmlns="http://www.w3.org/2000/svg">
<path d="M14.4797 2.53555C18.3453 2.53555 18.8041 2.55061 20.3323 2.61686C21.7428 2.6801 22.5116 2.90896 23.02 3.10168C23.6957 3.35765 24.1762 3.66179 24.6846 4.15264C25.193 4.64349 25.5061 5.11326 25.7696 5.76974C25.968 6.2636 26.2036 7.01041 26.2687 8.38057C26.34 9.86516 26.3524 10.3078 26.3524 14.066C26.3524 17.8211 26.3369 18.2668 26.2687 19.7484C26.2036 21.1186 25.968 21.8654 25.7696 22.3592C25.5061 23.0157 25.193 23.4855 24.6846 23.9763C24.1762 24.4702 23.6957 24.7743 23.02 25.0273C22.5085 25.22 21.7428 25.4489 20.3323 25.5121C18.8041 25.5844 18.3453 25.5964 14.4797 25.5964C10.6141 25.5964 10.1553 25.5814 8.63016 25.5151C7.2197 25.4519 6.45092 25.223 5.94253 25.0303C5.26675 24.7743 4.78317 24.4702 4.27788 23.9793C3.77259 23.4885 3.4564 23.0187 3.19291 22.3622C2.99452 21.8654 2.75892 21.1216 2.69382 19.7514C2.62253 18.2698 2.61013 17.8241 2.61013 14.069C2.61013 10.3139 2.62563 9.86818 2.69382 8.38358C2.75892 7.01342 2.99452 6.26661 3.19291 5.77275C3.4564 5.11627 3.76949 4.6465 4.27788 4.15566C4.78627 3.66179 5.26675 3.35765 5.94253 3.1047C6.45402 2.91197 7.2197 2.68311 8.63016 2.61987C10.1553 2.55061 10.6141 2.53555 14.4797 2.53555ZM14.4797 0C10.549 0 10.0561 0.0150567 8.50926 0.0843176C6.96861 0.153579 5.91463 0.391475 4.99396 0.737779C4.04229 1.09613 3.23321 1.57794 2.43033 2.36089C1.62435 3.14384 1.13147 3.92679 0.759479 4.85128C0.399889 5.74565 0.154996 6.7695 0.0867976 8.26614C0.0185995 9.76579 0 10.2476 0 14.066C0 17.8844 0.0185995 18.3662 0.0867976 19.8658C0.158096 21.3625 0.402989 22.3863 0.759479 23.2807C1.12837 24.2052 1.62435 24.9911 2.43033 25.7711C3.23321 26.554 4.04229 27.0328 4.99396 27.3942C5.91463 27.7405 6.96861 27.9784 8.50926 28.0477C10.053 28.1169 10.5459 28.132 14.4797 28.132C18.4135 28.132 18.9064 28.1169 20.4501 28.0477C21.9908 27.9784 23.0417 27.7405 23.9654 27.3942C24.9171 27.0359 25.7262 26.554 26.5291 25.7711C27.335 24.9881 27.8279 24.2052 28.1999 23.2807C28.5595 22.3863 28.8044 21.3625 28.8726 19.8658C28.9439 18.3662 28.9594 17.8874 28.9594 14.066C28.9594 10.2446 28.9408 9.76579 28.8726 8.26614C28.8013 6.7695 28.5595 5.74565 28.1999 4.85128C27.831 3.92679 27.335 3.14083 26.5291 2.36089C25.7231 1.57794 24.9171 1.09914 23.9654 0.737779C23.0448 0.388463 21.9908 0.150567 20.4501 0.0843176C18.9064 0.0150567 18.4135 0 14.4797 0ZM14.4797 6.84177C10.3723 6.84177 7.043 10.076 7.043 14.066C7.043 18.056 10.3723 21.2902 14.4797 21.2902C18.5871 21.2902 21.9164 18.056 21.9164 14.066C21.9164 10.076 18.5871 6.84177 14.4797 6.84177ZM14.4797 18.7547C11.8138 18.7547 9.65313 16.6557 9.65313 14.066C9.65313 11.4762 11.8138 9.37733 14.4797 9.37733C17.1456 9.37733 19.3063 11.4762 19.3063 14.066C19.3063 16.6557 17.1456 18.7547 14.4797 18.7547ZM23.9468 6.55871C23.9468 5.6282 23.1688 4.86934 22.2109 4.86934C21.2499 4.86934 20.4718 5.62519 20.4718 6.55871C20.4718 7.49223 21.2499 8.24506 22.2109 8.24506C23.1688 8.24506 23.9468 7.48921 23.9468 6.55871Z" fill="white"/>
</svg>
