<svg width="22" height="27" viewBox="0 0 22 27" fill="none" xmlns="http://www.w3.org/2000/svg">
<path d="M10.8095 11.8668C11.3439 11.8668 11.8664 11.7083 12.3108 11.4113C12.7552 11.1144 13.1016 10.6923 13.3061 10.1986C13.5106 9.70476 13.5642 9.1614 13.4599 8.6372C13.3556 8.11299 13.0982 7.63148 12.7203 7.25354C12.3424 6.87561 11.8609 6.61824 11.3367 6.51396C10.8125 6.40969 10.2691 6.46321 9.7753 6.66774C9.28151 6.87228 8.85946 7.21865 8.56252 7.66305C8.26558 8.10745 8.10709 8.62993 8.10709 9.1644C8.10709 9.88111 8.3918 10.5685 8.89859 11.0753C9.40539 11.5821 10.0927 11.8668 10.8095 11.8668ZM9.85011 21.2034C9.97572 21.3301 10.1252 21.4306 10.2898 21.4992C10.4545 21.5678 10.6311 21.6031 10.8095 21.6031C10.9878 21.6031 11.1644 21.5678 11.3291 21.4992C11.4937 21.4306 11.6432 21.3301 11.7688 21.2034L17.2951 15.6636C18.5787 14.3807 19.453 12.746 19.8073 10.9661C20.1617 9.18633 19.9803 7.3414 19.2861 5.66469C18.5918 3.98799 17.4159 2.55484 15.907 1.54652C14.3982 0.538198 12.6242 0 10.8095 0C8.9947 0 7.22071 0.538198 5.71186 1.54652C4.20302 2.55484 3.0271 3.98799 2.33284 5.66469C1.63858 7.3414 1.45718 9.18633 1.81157 10.9661C2.16596 12.746 3.04022 14.3807 4.32378 15.6636L9.85011 21.2034ZM4.36432 8.54286C4.45664 7.57949 4.76294 6.6489 5.26086 5.81903C5.75878 4.98916 6.43575 4.28097 7.24233 3.74616C8.30194 3.05044 9.54186 2.67976 10.8095 2.67976C12.077 2.67976 13.317 3.05044 14.3766 3.74616C15.1778 4.27914 15.8509 4.98304 16.3476 5.80724C16.8442 6.63144 17.1521 7.55546 17.249 8.51285C17.3459 9.47023 17.2294 10.4372 16.908 11.3442C16.5866 12.2512 16.0681 13.0757 15.39 13.7584L10.8095 18.3389L6.22895 13.7584C5.55001 13.0823 5.03035 12.2634 4.70779 11.3612C4.38524 10.4589 4.2679 9.49614 4.36432 8.54286ZM20.2677 24.2976H1.35118C0.992826 24.2976 0.649148 24.44 0.395752 24.6934C0.142356 24.9468 0 25.2905 0 25.6488C0 26.0072 0.142356 26.3509 0.395752 26.6042C0.649148 26.8576 0.992826 27 1.35118 27H20.2677C20.6261 27 20.9698 26.8576 21.2232 26.6042C21.4766 26.3509 21.6189 26.0072 21.6189 25.6488C21.6189 25.2905 21.4766 24.9468 21.2232 24.6934C20.9698 24.44 20.6261 24.2976 20.2677 24.2976Z" fill="#146C4A"/>
</svg>
