<svg width="337" height="166" viewBox="0 0 337 166" fill="none" xmlns="http://www.w3.org/2000/svg">
<path d="M92.4018 43.6848L95.2787 44.1412L97.2755 45.8865L98.7351 45.4723L99.9831 46.4274L100.732 46.3471L102.521 47.3021L104.523 47.1373L106.646 48.1768L109.295 50.2137L111.418 49.9643L111.795 48.7177L112.958 48.1768L113.876 46.926L114.832 47.5092L115.666 46.9683L116 47.5937L117.248 47.7162L118.234 47.2936L123.865 48.4388L124.736 50.5898L125.409 51.1687L129.788 51.8448L130.333 52.4238L131.264 52.5167L131.62 52.1322L132.554 52.5505L136.057 51.7138L137.411 51.9082L137.86 52.1322L138.342 54.2197L138.697 54.4141L136.574 57.2412L138.181 58.0779L139.438 57.6933L140.432 58.623L143.169 58.5596L143.681 58.9441L143.749 60.9049L144.519 62.5445L147.319 63.284L147.091 64.9532L147.51 67.6831L147.125 68.6466L146.642 68.6804L145.999 67.8141L146.355 66.4618L145.132 65.1772L142.589 64.2137L141.786 64.4715L142.877 67.3957L145.885 69.8256L148.517 69.7664L150.636 70.6834L151.495 70.1087L154.41 69.8256L157.443 70.9116L158.59 69.4833L162.651 68.9677L165.744 67.138H167.343L166.598 69.0269L166.772 71.0806L165.799 73.54L165.342 76.2276L163.451 77.7151L162.08 77.77L161.048 78.6828L158.645 79.0293L156.927 80.1703L154.355 80.7408L154.126 81.5986L155.04 82.972L155.328 84.5144L149.435 84.6877L147.658 86.6315L145.94 86.9147L145.712 88.2289L147.945 90.2868V90.9165L146.57 92.0025L145.483 94.0013L144.84 93.1477L141.553 92.3786L141.388 89.9403L140.576 89.2304L140.546 88.1909L139.7 87.8063L139.26 87.8866L138.6 89.9403L136.269 92.2434L135.639 94.9268L133.692 94.2126L131.966 92.5434V91.9941L135.258 89.0402L134.928 87.8866L134.022 87.2569L132.571 87.7767L133.062 88.8205L132.787 89.56L127.77 88.8754L127.084 89.4206L126.814 90.5446L125.963 90.8996L125.358 91.8588L124.152 91.6687L122.122 92.0786L121.356 93.8872L121.821 96.186L121.191 97.8552L119.901 98.075L118.78 99.2624L114.6 98.8948L112.882 100.868L111.579 100.386L109.862 98.3116L106.697 99.4441L101.764 98.4088L101.451 98.1637L102.018 96.7396L101.836 95.81L100.195 94.0732L99.4204 94.0478L98.972 92.3533L97.5589 91.5504L96.2052 91.8546L94.8894 90.4643L93.2564 91.8293L90.4304 93.228L88.9793 92.8688L88.8947 92.3997L89.8381 92.2349L90.9381 91.0559L90.9211 90.2192L89.7408 88.6641L89.8127 86.6358L89.1993 86.209L88.0951 86.3061L86.5805 87.7429L84.0464 86.602L82.3796 86.8428L80.9031 86.0949L80.2516 84.5736L81.4827 83.0312L81.8211 81.9198L80.6789 79.5618L81.1231 79.1899L80.9285 78.5138L79.4774 78.78L79.2616 77.5419L77.7386 74.9683L77.3028 75.2811L77.4255 76.2952L76.5794 75.2092L75.8771 75.0867L75.5852 75.4966L75.9025 76.3671L75.5852 76.8023L75.1029 76.5826L75.1664 75.3402L76.1902 74.2415L76.4102 71.1271L75.8306 71.106L74.6122 72.0018L73.9691 73.1808L72.7846 73.5907L72.8565 74.0725H73.8464L74.3076 74.5077L74.2103 75.9868L73.7111 76.9291L73.8549 78.2053L73.4318 78.2729L73.123 79.2618L72.4927 79.0927L71.985 80.5675L71.0585 81.2056L68.1563 80.8929L67.2382 81.4972L67.4794 83.3058L68.0251 83.9101L67.2171 85.237L68.2071 86.4921L66.7306 88.474L65.9564 88.1106L65.6941 86.6146L64.8945 86.0822L63.7353 86.5893L63.3969 87.726L62.8892 87.6753L62.5042 87.2908L62.4069 85.6596L61.8273 85.3469L61.1504 85.6596L59.6105 85.2243L58.4048 85.9977L58.2567 86.771L57.4613 87.0626L55.3587 85.4779L54.1488 85.3596L53.2815 86.1202L52.1181 85.985L49.6051 83.2086L48.3105 83.4411L47.5279 84.899L47.2867 82.9931L46.7283 82.5325L47.1641 80.445L47.0456 77.7531L45.0403 74.5458L43.9742 74.3007L41.2454 74.9557L39.5532 76.8615L38.5844 77.0052L37.6917 76.5699L37.2814 75.4078L35.0011 74.0852L34.2988 72.9273L33.7192 73.1217L32.412 72.1075L30.7451 73.1428L28.9048 72.192L28.9302 70.6116L29.9709 69.6439L30.1655 68.3888L32.0016 68.2662L34.0577 67.3492L35.8937 65.1772L37.7044 63.9475L38.6225 63.9686L39.1259 63.0051L39.1767 61.0951L40.9705 60.0978L44.0376 56.2565L45.3449 55.8213L46.4068 55.9903L46.9398 55.2677L48.2936 55.872L48.9917 55.703L49.6093 54.6803L49.1355 52.3477L49.7659 50.3447L52.4015 51.3335L54.1403 50.9954L54.4576 50.3447L57.0171 48.8572L57.3302 48.1811L59.1451 46.9049L60.3508 46.8077L61.4466 46.1189L61.9838 44.4286L62.9188 43.9764L64.9579 44.0989L66.794 44.9737L68.5413 45.0962L69.5397 44.4328L73.0384 43.8496L74.9972 44.6398L76.2029 45.8484L80.8269 46.888L84.8248 48.7177L86.3225 49.8376L87.9047 49.8798L88.2812 50.3404L89.6562 49.8376L90.1554 49.0896V46.888L91.1961 43.9764L92.4018 43.6848Z" stroke="#146C4A"/>
<path d="M152.591 1.77332H153.437L154.308 2.90583L155.078 2.83399L155.324 3.3918L156.673 3.72986L159.042 5.63569L159.888 5.39482L162.478 6.38366L164.483 9.2572L167.791 12.0082L170.634 11.6701L182.209 17.4637L184.096 17.3665L189.579 18.406L190.979 18.2116L197.554 19.9485L198.975 18.2666L199.593 15.7142L200.265 14.8564L201.251 14.0831L203.569 13.4323L204.631 14.4211L205.862 14.5648L206.755 15.2663L209.996 14.5648L214.467 15.0254L214.975 15.317L215.229 16.9693L216.57 17.2947L220.674 16.1157L221.401 15.1395L227.752 15.5071L228.428 15.0972L229.084 13.576L230.798 13.4576L231.618 12.5871L233.746 12.9505L235.773 12.3082L236.936 13.576L238.408 12.6716L240.219 12.8153L240.752 12.9632L240.943 13.8549L241.772 13.9647L242.999 14.9324L240.139 16.9735L239.513 18.9892L239.035 19.2301L233.408 19.6146L228.602 20.9584L226.537 20.6711L223.652 21.343L220.048 20.8612L220.001 21.8247L217.116 22.1585L211.684 26.1435L211.54 27.2506L211.108 27.538L208.413 27.4408L204.86 28.7381L202.118 28.9283L200.1 28.3028L200.05 30.6566L197.359 31.1848L196.352 32.9639L194.283 34.6922L192.599 35.4106L191.449 34.9796L191.254 34.1133L190.823 34.0161L190.103 34.595L187.794 34.9289L186.689 34.164L186.207 34.7852L183.711 35.3134L181.596 34.5443L180.25 34.8824L179.286 34.257L177.991 35.1698L176.79 35.2205L175.825 34.3542L174.865 34.8824L172.703 34.5443L169.001 35.0726L171.019 38.5293L171.214 39.6364L170.778 39.9703L170.012 39.7801L167.702 40.3083L165.541 42.5142L164.339 42.324L159.888 43.3551H155.273L154.456 47.1499L156.474 48.6374L154.503 50.0319L154.266 50.5094L154.647 51.9504L154.359 52.6688L153.208 53.2477L152.802 55.5761L150.399 55.6733L148.622 58.7919L147.996 58.0735L148.715 56.0071L146.266 55.9099L144.345 53.4167L143.622 54.1351L142.374 54.376L138.342 54.2196L137.86 52.1321L137.411 51.9081L136.058 51.7137L132.555 52.5504L131.62 52.1321L131.264 52.5166L130.334 52.4237L129.788 51.8447L125.409 51.1686L124.736 50.5897L123.865 48.4387L118.234 47.2935L118.289 45.3877L116.914 44.8891L116.334 44.0988L116.457 41.9352L116.791 41.6437L118.623 42.2268L120.497 40.6041L121.58 40.7732L123.078 40.2322L124.83 40.6886L125.951 39.6913L127.702 39.5646L129.576 40.19L132.698 39.1082L133.198 38.525L133.282 37.1939L134.45 35.7783L134.742 34.1175L133.781 33.4499L132.783 33.8259L132.034 32.5751L131.45 32.7019L130.951 35.0303L130.16 34.9247L130.215 34.2908L129.081 33.2048L127.969 31.0412L127.461 29.186L127.486 26.9168L128.332 23.8066L129.944 21.1443L130.262 17.9243L129.665 15.5071L129.86 14.5901L130.968 13.4788L131.26 10.6813L133.875 9.70936L138.198 6.64988L139.057 7.20346L139.467 6.76821L141.773 6.98795L142.793 5.96108L143.795 3.07486L145.196 3.58196L146.503 4.8835L147.781 4.0637L151.36 3.67915L151.55 3.22277L150.683 1.67613L150.873 1L152.591 1.77332Z" stroke="#146C4A"/>
<path d="M169.813 112.392L169.576 114.209L168.853 115.27L172.352 118.709L172.271 119.288L171.087 119.833L169.301 118.866L166.319 118.929L166.145 120.226L165.033 121.858L162.617 121.667L160.971 124.224L159.52 125.057L158.556 126.46L156.153 128.543L155.247 128.919L153.97 128.294L153.386 128.564L152.565 127.592L148.94 128.463L147.154 129.62L146.139 128.97L144.717 131.032L143.067 131.577L143.046 132.012L144.104 132.469L144.206 133.145L142.272 135.908L142.611 137.709L140.652 138.964L140.098 141.279L140.288 142.391L142.217 143.392L143.503 147.605L143.406 149.004L142.344 149.245L142.103 150.369L141.451 150.876L141.329 153.412L140.677 153.75L137.098 154.282L134.2 153.75L131.738 154.472L130.795 153.919L128.861 153.965L125.599 155.317L124.825 157.418L122.676 157.299L122.194 157.925L120.451 158.554L118.208 157.899L115.865 158.576L114.608 158.288L113.229 158.77L112.408 158.144L110.839 158.867L109.701 158.36L108.326 158.892L105.546 157.392L103.177 157.054L102.356 158.314L101.316 158.652L100.833 157.684L99.5981 157.612L98.8493 158.022L98.7308 158.99H97.0639L94.3056 159.978L91.6953 165.193L91.2765 165.265L90.625 163.359L89.8254 162.996L89.4869 162.053L87.7735 161.931L86.8301 161.234L85.9586 158.263L83.6656 158.939L81.4911 160.984L78.1997 161.377L76.7994 159.154L78.4451 156.644L77.6032 154.422L77.0913 154.147L73.9226 154.874L71.0965 154.629L70.2969 152.241L71.05 150.961L71.0881 149.9L69.3408 148.421L71.0542 144.626L73.8126 144.153L75.0352 142.463L76.7274 142.695L77.4001 143.722L79.5281 144.233L80.5096 145.057L82.993 145.019L84.4906 146.198L86.1067 146.24L86.7794 146.95L89.0258 146.16L91.3103 146.79L92.6514 146.397L94.5002 145.729L95.4859 144.546L96.5097 144.428L100.135 142.619L100.647 141.516L100.372 140.451L98.7985 138.879L99.23 138.406L98.68 137.658L98.0074 137.383L96.6282 138.093L95.1306 135.139L94.0306 134.429L92.3722 134.117L93.0026 131.873L92.4145 130.571L92.7699 129.392L92.2157 128.682L90.9169 128.251L92.1776 127.148V126.599L91.5049 125.614L89.4192 124.587L90.5615 123.763L89.9312 122.661L90.2061 120.417L89.2204 120.104L85.0575 121.541L83.4076 120.159L85.9925 117.526L85.8232 116.947L86.5721 116.127L86.7201 115.134L88.0951 115.185L89.2373 114.12L89.2839 113.423L91.4838 113.664L91.5811 114.796L92.4018 115.595H93.7091L95.6425 117.404L96.5351 117.163L96.3194 116.127L97.1401 114.792L97.1655 113.182L97.0089 112.709L96.0994 112.552L96.5351 111.589L95.8117 109.97L94.8429 109.417L95.0629 109.003L95.9301 109.028L96.1248 108.352L96.5605 108.496L98.5277 111.369L99.3738 110.355L99.8096 111.154L102.83 112.624L104.353 112.455L104.692 109.561L106.574 109.975L107.082 109.561L107.64 107.025L107.035 106.036L107.471 105.77L108.338 106.252L109.79 105.698L110.344 104.418L112.37 103.885L113.441 102.994L117.117 102.22L118.399 101.498L119.076 100.217L118.746 99.2623L119.867 98.0749L121.157 97.8551L121.707 96.9001L121.322 93.8871L122.088 92.0785L124.119 91.6686L125.324 91.8587L125.929 90.8995L126.78 90.5445L127.05 89.4204L127.736 88.8753L132.753 89.5599L133.028 88.8204L132.538 87.7766L134.289 87.2019L135.114 88.2161L135.224 89.0401L131.933 91.994V92.5433L133.659 94.2125L135.605 94.9267L136.51 91.8038L138.566 89.9402L139.226 87.8865L140.212 87.9414L140.542 89.2303L141.354 89.9402L141.519 92.3785L144.806 93.1476L145.576 94.2674L146.862 94.8971L147.357 96.4057L148.182 96.5155L149.798 97.7748L150.674 98.8144L150.839 100.129L152.265 100.758L152.785 102.237L153.801 102.292L155.036 104.76L155.996 105.085L156.652 105.88L157.532 105.909L158.463 107.029L159.283 106.894L161.699 107.769L162.384 108.648L161.809 110.017L161.999 110.892L164.741 111.496L165.206 112.151L167.757 112.371L168.798 111.961L169.813 112.392Z" stroke="#146C4A"/>
<path d="M61.1634 119.314L62.6144 119.508L63.2913 120.641L64.7636 120.349L67.7504 122.23L69.1253 122.039L69.9968 124.114L72.3914 124.14L72.899 123.755L72.9244 122.454L73.8932 122.213L74.4982 122.551L75.0313 123.78L75.2978 124.651L74.8367 125.733L75.6362 127.237L77.6669 125.644L79.9261 124.668L79.9388 124L79.3338 123.565L79.7991 122.825L81.0514 122.699L82.7986 123.535L83.9494 122.437L85.1805 122.339L85.0662 121.549L89.2292 120.112L90.2149 120.429L89.9399 122.673L90.5703 123.776L89.428 124.604L91.5179 125.627L92.1863 126.612V127.161L90.9256 128.264L92.2244 128.695L92.7744 129.405L92.419 130.584L93.0113 131.881L92.3809 134.125L94.0351 134.442L95.1393 135.152L96.6369 138.106L98.0161 137.396L98.6845 137.671L99.2345 138.419L98.803 138.892L100.381 140.468L100.656 141.529L100.144 142.632L96.5185 144.445L95.4947 144.563L94.5089 145.742L92.6559 146.41L91.3148 146.803L89.0303 146.173L86.7839 146.959L86.1154 146.249L84.4993 146.211L83.0017 145.032L80.5183 145.07L79.5326 144.242L77.4046 143.73L76.7362 142.708L75.0397 142.471L73.8171 144.161L71.0587 144.635L69.3453 148.429L68.4104 148.075L68.4358 148.607L66.697 149.017L66.1174 150.031L63.9809 150.251L62.9994 152.106L61.5991 151.455L59.8603 152.423L56.882 152.279L56.3997 153.053L56.1839 155.419L55.507 156.264H53.9375L52.296 155.372L51.5218 156.868L50.0496 156.218L49.1569 157.037L48.3827 157.084L46.3266 155.901L46.5847 153.762L45.9882 152.934L44.5371 152.14L43.4245 149.701L40.7634 148.979L39.7988 147.939L37.6116 149.135L36.609 149L36.004 149.748L34.5063 149.051L32.7676 151.582L31.3165 151.557L30.1573 149.794L28.3677 150.445L26.9167 149.118L25.6009 150.23L24.6914 150.035L23.9214 151.168L23.3164 151.214L22.8087 150.082L20.7315 149.647L20.0292 151.024L19.2635 151.366L16.9578 149.6L14.8087 148.877L13.0191 149.456L11.5215 149.093L9.78272 150.952L6.73669 151.337L4.99792 150.297L4.73562 151.358L4.17718 151.814L3.35644 151.164L3.83873 149.232L2.94608 146.579L2.65416 143.925L1.4696 142.442V140.865L1 140.024L3.05607 137.696L2.08726 136.331L2.64147 134.713L3.89796 133.276L3.22106 132.262L3.43683 131.97L4.25756 132.938L5.61135 133.301L6.09364 134.049L6.21633 135.837L7.30359 136.006L8.07779 135.342L9.77003 135.283L8.44162 132.604L8.82661 128.547L9.16506 128.281L10.6881 128.911L12.8161 128.065L14.0472 128.403L14.8679 127.077L16.5094 126.113L24.2556 124.157L26.5274 125.483L28.1478 127.077L29.5015 126.933L30.1531 128.141L32.4503 128.167L34.261 128.868L34.574 129.616L36.482 130.656L40.8819 132.152L41.0257 133.043L38.5846 134.806L38.4154 136.255L39.0669 136.834L39.2108 134.928L40.4207 134.759L42.2568 133.72L43.031 129.24L47.3801 128.179L47.8412 127.381L47.7439 126.341L49.5715 126.16L52.9645 124.533L53.3452 123.544L52.571 122.242L52.7656 121.782L55.4732 121.49L56.9243 120.598L57.9862 119.297L61.1634 119.314ZM55.6086 123.147L55.2997 122.741L54.974 123.147L55.3505 124.304L55.6086 123.147ZM74.5828 124.748L73.779 124.516V125.044L74.477 125.15L74.5828 124.748ZM54.4494 131.002L54.9401 131.687L56.8312 132.24L57.2543 132.811L56.6831 133.529L57.2543 134.62L56.1924 135.646L55.5409 137.164L56.9581 137.768L57.3177 136.318L57.7577 136.416L57.9227 137.442L59.4415 137.231L60.4526 136.107L60.2242 135L58.1216 134.852L58.0877 134.544L58.8704 133.927L58.2992 132.95L59.9449 132.071L59.928 131.353L57.8381 132.169L57.1697 129.528L56.222 128.826L55.2913 126.155L54.3775 125.716L53.9375 125.961L54.3436 126.908L54.4494 131.002ZM77.7938 134.531L79.3295 134.734L79.7357 133.808L77.5315 131.983L77.2142 132.359L77.5612 133.314L75.852 134.096L75.7378 134.56L76.6389 135.342L77.7938 134.531ZM39.3419 138.093L40.1627 140.405L41.618 140.088L42.0707 140.65L41.8126 142.167L45.8528 138.583L45.6709 137.983L45.1928 137.886L42.8406 138.216L39.5958 137.578L39.3419 138.093Z" stroke="#146C4A"/>
<path d="M82.6629 19.695L83.9786 20.6627L86.1278 21.1444L87.6254 22.3783L89.1992 22.4967L90.2357 21.7952L92.2664 21.6768L95.6043 22.6784L99.9957 25.311L102.97 24.8758L107.391 26.7816L109.35 29.5833L112.417 30.5975L118.631 30.4031L120.806 31.2483L123.683 31.561L124.25 34.312L125.413 34.8698L128.929 35.4741L130.126 34.9247L130.583 35.1571L131.167 34.3246L131.416 32.7019L132 32.5752L132.749 33.826L134.204 33.6147L134.704 34.1176V34.9078L133.248 37.194L133.164 38.5251L132.664 39.1082L129.542 40.19L127.668 39.5646L125.917 39.6914L124.795 40.6887L123.044 40.2323L121.546 40.7732L120.463 40.6042L118.589 42.2269L116.757 41.6437L116.423 41.9353L116.3 44.0989L116.88 44.8891L118.255 45.3878V47.2598L117.214 47.7162L115.966 47.5936L115.632 46.9682L114.799 47.5091L113.842 46.926L112.924 48.1768L111.761 48.7177L111.384 49.9643L109.845 50.2136H109.261L106.612 48.1768L104.489 47.1372L102.488 47.302L100.698 46.347L99.9491 46.4273L98.7011 45.4723L96.6577 45.7216L95.8666 44.513L94.534 43.8918L91.6191 43.6003L91.1622 43.9764L90.1215 46.8879V49.0896L89.6223 49.8375L88.2473 50.3404L87.8708 49.8798L86.2885 49.8375L84.7909 48.7177L80.793 46.8879L76.1689 45.8484L74.9632 44.6398L73.0045 43.8496L67.5512 45.0962L64.924 44.0989L62.8849 43.9764L61.9541 44.4285L61.1884 43.427L60.4396 43.3045L57.3936 41.0352L55.3163 40.8197L53.3322 42.341L51.9784 41.7367L50.7473 42.1001L49.7573 39.9999L50.5527 37.9461L51.3734 37.7771L52.5961 36.4418L51.8176 35.2163L52.9472 34.4725L53.3829 32.685L56.3317 33.4076L56.209 32.2498L54.2502 29.9552L54.2291 28.8691L55.2909 28.1465L57.5628 28.5564L59.255 28.0747L59.3016 25.0194L60.4142 24.7659L61.2857 23.9926L61.9838 22.7882L62.1064 21.5543H64.7421L65.9986 20.3246L68.4397 20.5655L70.2503 19.9612L72.4756 21.1698L74.1552 19.5766L75.8728 19.7457L78.9188 18.6343L82.6629 19.695Z" stroke="#146C4A"/>
<path d="M191.241 34.5443L192.633 35.4106L194.825 34.0922L198.023 36.1966L198.776 36.0952L198.844 37.0164L199.563 37.1474L199.66 37.6714L202.22 37.3418L202.909 36.0318L205.367 36.5896L204.974 38.8166L205.926 43.6002L207.601 44.682V45.8272L209.568 46.778L208.781 49.4318L207.893 49.8586L207.076 51.6926L208.354 52.018L212.124 50.8728L214.941 52.0349L217.302 52.1025L218.123 52.9857L220.124 52.8547L222.353 54.2957L223.864 54.7225L224.519 55.4451L225.336 55.1155L225.535 55.9015L224.549 56.8861L224.287 58.2595L220.682 58.5891L220.09 59.8357L220.153 61.7035L220.284 62.3585L223.305 62.4895L225.501 62.2571L226.52 61.3063L227.73 61.9951L228.128 63.5375L226.812 65.1729L228.06 66.4829L227.337 69.2846L227.929 69.386L228.619 68.731L229.896 70.1044L235.438 69.648L237.211 70.5946L238.819 69.517L242.973 70.041L244.97 69.648L246.709 67.9112L247.301 69.7114L246.48 72.0694L246.252 72.53L244.547 72.4624L245.528 73.3498L246.446 76.7896L247.563 77.377L249.336 77.5418L249.759 78.294L248.841 81.2436L247.233 82.524L247.301 83.179L250.745 81.8014L255.009 80.9478L256.549 81.738L256.025 82.3592V83.7664L257.141 84.7848L259.468 84.3242L262.586 84.489L265.933 85.6342L269.148 83.7664L270.984 83.5044L271.703 83.8002L271.31 84.882L271.868 86.3568L273.472 87.1977L273.116 88.6429L271.733 89.8261L269.685 90.0924L268.331 91.3686L266.855 90.4304L264.38 90.4051L262.531 89.7289L261.461 90.6671L259.993 91.1784L259.409 91.9728L258.267 91.7742L257.141 92.6025L250.867 93.0124L250.288 92.8434L250.343 92.2856L247.267 91.4658L244.657 92.7926L243.134 91.901L240.714 92.3109L239.483 91.8545L239.17 90.9375L238.083 90.4051L236.221 90.1853L235.642 90.2107L233.653 91.9686L232.041 92.0236L231.555 93.8702L230.539 93.8914L230.349 94.4703L229.164 94.8844L228.606 96.7184L228.754 98.937L227.98 99.3469L228.107 100.057L227.519 101.232L225.585 102.609L225.636 103.742L226.385 104.828L225.467 106.856L225.602 107.655L222.637 110.913L221.697 114.484L220.851 115.523L219.278 116.44L219.011 117.214L216.57 117.721L215.897 119.073L215.339 118.612L215.267 117.091L213.164 116.318L212.559 116.389L210.398 118.274L207.622 117.742L206.387 118.709L205.566 117.767L204.767 117.573L203.392 119.58L203.438 120.666L203.083 120.991L202.423 120.497L200.828 120.518L200.033 119.867L198.823 120.712L196.356 121.363L195.51 117.936L195.802 116.318L196.792 115.185L197.105 114.074L194.681 111.902L194.173 107.676L193.86 106.928L192.891 106.446L189.896 108.234L187.963 110.478L185.471 111.589L184.362 112.65L184.193 113.372L183.36 113.554L181.718 115.003L180.026 114.568L177.657 115.126L175.939 114.45L174.903 114.665L170.901 112.033L171.383 112.252L165.274 112.151L164.809 111.496L162.067 110.892L162.228 108.208L160.476 107.169L158.53 107.029L157.595 105.91L156.72 105.88L156.06 105.085L155.099 104.76L153.868 102.292L152.853 102.237L152.333 100.758L150.907 100.129L150.742 98.8144L149.866 97.7749L148.246 96.5156L147.425 96.4057L146.93 94.8971L145.644 94.2675L146.088 92.687L147.979 90.9164V90.2868L146.147 88.9176L145.69 87.4851L145.974 86.9146L147.692 86.6314L149.464 84.6876L155.362 84.5143L155.074 82.9719L154.156 81.5985L154.389 80.7407L156.961 80.1702L158.678 79.0292L161.081 78.6827L162.114 77.77L163.484 77.715L165.375 76.2275L165.832 73.5399L166.805 71.0805L166.632 69.0268L167.377 67.1379H165.773L162.685 68.9676L158.623 69.4832L157.477 70.9115L154.444 69.8255L151.524 70.1086L150.666 70.6833L148.55 69.7663L145.919 69.8255L142.911 67.3956L141.819 64.4714L142.623 64.2136L145.162 65.1771L146.384 66.4617L146.033 67.814L146.676 68.6803L147.159 68.6465L147.544 67.683L147.125 64.9531L147.349 63.2839L144.552 62.5444L143.778 60.9048L143.715 58.9441L143.203 58.5595L140.466 58.6229L139.467 57.6932L138.215 58.0778L136.544 57.0171L138.659 54.376L139.907 54.0886L142.403 54.376L143.656 54.1351L144.375 53.4167L146.3 55.9099L148.749 56.0071L148.03 58.0735L148.652 58.7919L150.433 55.6733L152.836 55.5761L153.238 53.2477L154.393 52.6688L154.681 51.9504L154.296 50.5094L154.537 50.0319L156.508 48.6374L154.49 47.1499L155.307 43.3551H159.922L164.373 42.324L165.574 42.5142L167.736 40.3083L170.042 39.7801L170.812 39.9703L171.243 39.6364L171.053 38.5293L169.035 35.0726L172.737 34.5443L174.899 34.8824L175.859 34.3542L176.819 35.2205L178.021 35.1698L179.32 34.257L180.28 34.8824L181.625 34.5443L183.741 35.3134L186.241 34.7852L186.723 34.164L187.827 34.9289L190.133 34.595L190.856 34.0161L191.288 34.1133L191.241 34.5443Z" stroke="#146C4A"/>
<path d="M273.472 87.1977L271.869 86.3567L271.31 84.8819L271.704 83.8001L270.984 83.5043L269.148 83.7663L265.933 85.6341L262.587 84.4889L259.469 84.3241L257.142 84.7847L256.025 83.7663V82.3591L256.55 81.7379L255.01 80.9477L250.745 81.8013L247.302 83.1789L247.234 82.5239L248.841 81.2435L249.76 78.2939L249.336 77.5417L247.564 77.3769L246.447 76.7895L245.529 73.3497L244.547 72.4623L246.252 72.5299L246.481 72.0693L247.302 69.7113L246.709 67.9111L244.97 69.648L242.974 70.041L238.819 69.517L237.212 70.5945L235.439 69.648L229.897 70.1043L228.619 68.731L227.93 69.386L227.337 69.2845L228.061 66.4828L226.813 65.1728L228.128 63.5375L227.731 61.995L226.521 61.3062L225.501 62.257L223.306 62.4895L220.285 62.3585L220.154 61.7035L220.09 59.8357L220.683 58.5891L224.287 58.2594L224.549 56.8861L225.535 55.9014L225.336 55.1154L224.52 55.4451L223.864 54.7225L222.354 54.2956L220.124 52.8547L218.123 52.9856L217.302 52.1025L214.942 52.0348L212.124 50.8728L208.355 52.0179L207.077 51.6926L207.894 49.8586L208.782 49.4318L209.569 46.778L207.602 45.8272V44.682L205.926 43.6002L204.974 38.8166L205.368 36.5896L202.91 36.0318L202.22 37.3418L199.661 37.6714L199.563 37.1474L198.844 37.0164L198.777 36.0952L198.024 36.1966L194.825 34.0921L196.382 32.9638L197.393 31.1848L200.084 30.6566L200.135 28.3028L202.153 28.9282L204.89 28.7381L208.448 27.4407L211.138 27.5379L211.574 27.2506L211.718 26.1434L217.15 22.1585L220.031 21.8247L220.082 20.8612L223.686 21.3429L226.567 20.671L228.636 20.9584L233.442 19.6146L239.065 19.23L239.547 18.9892L240.173 16.9735L243.033 14.9324L247.166 15.4944L250.525 14.3873L252.649 14.3154L253.859 14.9662L258.813 15.5198L260.044 15.3043L261.956 16.4368L264.385 16.8256L265.523 17.8144L266.923 17.2566L268.455 17.8397L270.946 17.8144L271.953 17.4256L272.118 16.9185L276.713 17.7552L277.944 16.5466L279.061 16.8974L281.696 16.0987L284.302 18.0172L285.876 18.4187L286.578 19.4075L288.169 19.1286L289.768 19.4075L290.394 20.0836L291.626 19.8301L294.57 20.9626L297.295 21.0598L298.31 21.5669L302.782 20.1428L302.168 21.8711L303.133 24.8757L306.225 28.0873L307.685 28.4L307.736 28.9071L312.33 33.978L315.816 34.1936L316.975 33.2766L322.843 34.8443L325.695 34.9669L326.359 36.9445L327.7 38.6095L329.417 38.9729L329.912 39.8646L331 40.4435L330.805 41.7028L332.159 44.065L333.407 43.5833L335.108 44.4749L335.446 47.0104L335.036 48.8444L336 50.1966L335.869 50.6108L334.156 50.2938L331.82 51.2953L328.148 50.8643L323.313 51.346L322.441 51.8996L322.302 53.4463L320.026 57.8157L317.538 60.9048L315.456 61.4119L311.653 61.3865L311.107 60.8752L311.691 60.6893L312.135 59.6159L311.611 58.8722L310.092 58.7074L308.836 59.337L307.871 60.5414L306.2 60.5921L303.23 63.5839L300.789 63.7276L299.702 64.7925L297.768 65.4686L297.451 66.1913L294.769 66.9139L291.896 69.6437L287.691 70.827L287.302 72.2764L286.045 73.7216L283.435 73.5526L281.696 75.3654L278.337 76.3289L278.045 78.2136L278.625 78.8898L278.748 80.5547L278.117 80.9393L277.948 81.9788L276.67 82.1225L274.492 84.1297L273.472 87.1977Z" stroke="#146C4A"/>
</svg>
