<svg width="1198" height="590" viewBox="0 0 1198 590" fill="none" xmlns="http://www.w3.org/2000/svg">
<path d="M327.52 154.274L337.783 155.902L344.907 162.128L350.113 160.651L354.566 164.058L357.237 163.771L363.621 167.178L370.76 166.59L378.336 170.299L387.784 177.565L395.36 176.675L396.703 172.228L400.854 170.299L404.129 165.836L407.539 167.917L410.513 165.987L411.705 168.218L416.157 168.655L419.674 167.148L439.761 171.233L442.87 178.907L445.27 180.972L460.891 183.384L462.837 185.449L466.158 185.781L467.426 184.409L470.761 185.901L483.257 182.917L488.087 183.61L489.687 184.409L491.407 191.856L492.675 192.55L485.099 202.635L490.834 205.62L495.316 204.248L498.863 207.564L508.627 207.338L510.454 208.71L510.695 215.705L513.442 221.554L523.433 224.192L522.618 230.147L524.112 239.885L522.739 243.323L521.018 243.443L518.724 240.353L519.992 235.529L515.63 230.946L506.56 227.509L503.692 228.428L507.586 238.86L518.317 247.528L527.704 247.317L535.265 250.589L538.329 248.538L548.728 247.528L559.549 251.403L563.639 246.307L578.127 244.468L589.16 237.941H594.865L592.208 244.679L592.827 252.006L589.356 260.78L587.726 270.367L580.98 275.674L576.09 275.87L572.407 279.126L563.835 280.362L557.708 284.432L548.531 286.467L547.716 289.528L550.976 294.427L552.003 299.93L530.979 300.548L524.64 307.482L518.513 308.492L517.698 313.181L525.667 320.522V322.768L520.762 326.643L516.883 333.773L514.589 330.728L502.862 327.984L502.274 319.286L499.376 316.753L499.27 313.045L496.252 311.673L494.682 311.96L492.328 319.286L484.012 327.502L481.763 337.075L474.821 334.527L468.663 328.572V326.613L480.405 316.075L479.228 311.96L475.998 309.713L470.821 311.568L472.572 315.291L471.591 317.929L453.692 315.487L451.247 317.432L450.281 321.442L447.247 322.708L445.089 326.13L440.788 325.452L433.543 326.914L430.812 333.366L432.472 341.567L430.223 347.522L425.62 348.306L421.621 352.542L406.709 351.23L400.582 358.27L395.933 356.552L389.806 349.15L378.517 353.19L360.919 349.497L359.803 348.622L361.825 343.542L361.176 340.225L355.32 334.029L352.558 333.939L350.959 327.894L345.918 325.03L341.088 326.115L336.394 321.155L330.569 326.025L320.487 331.014L315.311 329.733L315.009 328.06L318.374 327.472L322.298 323.266L322.238 320.281L318.027 314.733L318.284 307.497L316.095 305.975L312.156 306.321L306.753 311.447L297.713 307.377L291.767 308.236L286.499 305.568L284.175 300.141L288.567 294.638L289.774 290.673L285.7 282.262L287.284 280.935L286.59 278.523L281.413 279.473L280.644 275.056L275.21 265.875L273.656 266.99L274.094 270.608L271.075 266.734L268.57 266.297L267.528 267.759L268.66 270.865L267.528 272.418L265.808 271.634L266.034 267.202L269.687 263.282L270.471 252.172L268.404 252.096L264.057 255.292L261.763 259.498L257.537 260.96L257.794 262.679H261.326L262.971 264.232L262.623 269.508L260.843 272.87L261.356 277.422L259.846 277.664L258.745 281.191L256.496 280.588L254.685 285.849L251.38 288.126L241.026 287.01L237.751 289.166L238.612 295.618L240.559 297.774L237.676 302.507L241.208 306.985L235.94 314.055L233.178 312.759L232.243 307.422L229.39 305.522L225.255 307.331L224.048 311.387L222.237 311.206L220.863 309.834L220.516 304.015L218.448 302.899L216.034 304.015L210.54 302.462L206.239 305.221L205.711 307.98L202.873 309.02L195.372 303.367L191.056 302.945L187.962 305.658L183.812 305.176L174.847 295.271L170.229 296.1L167.437 301.301L166.576 294.503L164.584 292.859L166.139 285.412L165.716 275.809L158.562 264.367L154.759 263.493L145.025 265.83L138.988 272.629L135.531 273.141L132.347 271.588L130.883 267.443L122.748 262.724L120.243 258.594L118.175 259.287L113.512 255.669L107.566 259.362L101 255.971L101.091 250.332L104.804 246.88L105.498 242.403L112.048 241.966L119.383 238.694L125.933 230.946L132.392 226.559L135.667 226.634L137.463 223.197L137.644 216.383L144.044 212.826L154.985 199.122L159.649 197.57L163.437 198.173L165.339 195.595L170.168 197.75L172.658 197.147L174.862 193.499L173.172 185.178L175.42 178.032L184.823 181.56L191.026 180.354L192.158 178.032L201.288 172.726L202.405 170.314L208.88 165.761L213.181 165.414L217.09 162.957L219.007 156.927L222.342 155.314L229.617 155.751L236.167 158.872L242.4 159.309L245.962 156.942L258.443 154.862L265.431 157.681L269.732 161.992L286.228 165.701L300.49 172.228L305.833 176.223L311.477 176.374L312.82 178.017L317.725 176.223L319.506 173.555V165.701L323.219 155.314L327.52 154.274Z" stroke="#146C4A" stroke-width="2"/>
<path d="M542.238 4.75875H545.256L548.365 8.79888L551.112 8.5426L551.988 10.5325L556.802 11.7385L565.254 18.5374L568.272 17.6781L577.509 21.2057L584.662 31.4568L596.464 41.2707L606.606 40.0647L647.899 60.7327L654.63 60.3859L674.19 64.0944L679.185 63.401L702.639 69.5968L707.71 63.5969L709.913 54.4916L712.313 51.4313L715.829 48.6726L724.1 46.351L727.888 49.8786L732.28 50.3911L735.464 52.8936L747.025 50.3911L762.977 52.0343L764.789 53.0745L765.694 58.9689L770.478 60.1297L785.118 55.9237L787.714 52.4413L810.367 53.7529L812.782 52.2906L815.121 46.8636L821.234 46.4414L824.161 43.336L831.753 44.6324L838.982 42.341L843.132 46.8636L848.385 43.6375L854.844 44.15L856.746 44.6777L857.425 47.8585L860.383 48.2505L864.76 51.7027L854.557 58.9839L852.324 66.1748L850.618 67.0341L830.545 68.4059L813.401 73.1998L806.036 72.1747L795.743 74.5716L782.884 72.8531L782.718 76.2902L772.425 77.4811L753.047 91.697L752.534 95.6466L750.994 96.6717L741.38 96.325L728.703 100.953L718.923 101.631L711.724 99.4003L711.543 107.797L701.944 109.682L698.352 116.028L690.972 122.194L684.966 124.757L680.86 123.219L680.166 120.129L678.627 119.782L676.061 121.847L667.821 123.038L663.882 120.31L662.161 122.526L653.257 124.41L645.711 121.666L640.911 122.872L637.47 120.641L632.852 123.897L628.566 124.078L625.125 120.988L621.699 122.872L613.987 121.666L600.781 123.551L607.98 135.882L608.674 139.832L607.12 141.023L604.388 140.344L596.148 142.229L588.435 150.098L584.149 149.42L568.272 153.098H551.806L548.894 166.635L556.093 171.942L549.06 176.917L548.214 178.62L549.573 183.761L548.547 186.323L544.441 188.389L542.993 196.695L534.42 197.042L528.081 208.167L525.848 205.605L528.413 198.233L519.675 197.886L512.823 188.992L510.242 191.555L505.79 192.414L491.407 191.856L489.687 184.409L488.087 183.61L483.257 182.917L470.761 185.901L467.426 184.409L466.158 185.781L462.838 185.449L460.891 183.384L445.27 180.972L442.87 178.907L439.761 171.233L419.674 167.148L419.87 160.349L414.965 158.57L412.897 155.751L413.335 148.033L414.527 146.992L421.062 149.073L427.748 143.284L431.612 143.887L436.954 141.957L443.203 143.586L447.202 140.028L453.45 139.576L460.136 141.807L471.274 137.947L473.055 135.867L473.357 131.118L477.522 126.068L478.564 120.144L475.138 117.762L471.576 119.104L468.905 114.641L466.822 115.094L465.041 123.4L462.219 123.023L462.415 120.762L458.37 116.887L454.401 109.169L452.59 102.551L452.68 94.4557L455.699 83.3604L461.449 73.8631L462.581 62.3758L460.453 53.7529L461.147 50.4816L465.101 46.5168L466.143 36.5371L475.47 33.0698L490.894 22.1554L493.958 24.1303L495.422 22.5775L503.647 23.3614L507.284 19.6982L510.861 9.40188L515.857 11.2109L520.52 15.854L525.078 12.9295L537.846 11.5576L538.525 9.92951L535.431 4.41202L536.111 2L542.238 4.75875Z" stroke="#146C4A" stroke-width="2"/>
<path d="M603.679 399.38L602.833 405.862L600.253 409.646L612.734 421.917L612.447 423.983L608.221 425.927L601.852 422.475L591.212 422.701L590.594 427.329L586.624 433.148L578.007 432.47L572.136 441.59L566.959 444.56L563.518 449.565L554.946 456.997L551.716 458.339L547.158 456.108L545.075 457.073L542.147 453.605L529.213 456.711L522.844 460.841L519.222 458.52L514.151 465.876L508.265 467.821L508.19 469.374L511.963 471.002L512.325 473.414L505.428 483.273L506.635 489.695L499.648 494.172L497.671 502.434L498.35 506.398L505.232 509.971L509.82 525.001L509.473 529.991L505.685 530.85L504.824 534.86L502.5 536.669L502.062 545.714L499.738 546.92L486.97 548.82L476.632 546.92L467.848 549.498L464.483 547.523L457.585 547.689L445.949 552.513L443.187 560.005L435.521 559.583L433.8 561.814L427.582 564.061L419.583 561.724L411.222 564.136L406.74 563.111L401.82 564.83L398.892 562.598L393.292 565.176L389.233 563.367L384.328 565.267L374.412 559.915L365.96 558.709L363.032 563.201L359.32 564.407L357.599 560.955L353.192 560.699L350.521 562.161L350.098 565.613H344.152L334.312 569.141L325 587.744L323.506 588L321.182 581.201L318.329 579.905L317.122 576.543L311.009 576.106L307.644 573.618L304.535 563.02L296.355 565.433L288.597 572.729L276.856 574.131L271.86 566.201L277.731 557.247L274.728 549.317L272.901 548.337L261.597 550.93L251.516 550.056L248.663 541.538L251.35 536.971L251.485 533.187L245.252 527.911L251.365 514.373L261.205 512.685L265.567 506.655L271.603 507.484L274.003 511.147L281.595 512.971L285.096 515.911L293.955 515.775L299.298 519.981L305.063 520.132L307.463 522.664L315.477 519.845L323.626 522.092L328.411 520.69L335.006 518.308L338.523 514.087L342.175 513.665L355.109 507.212L356.935 503.278L355.954 499.479L350.34 493.871L351.879 492.183L349.917 489.514L347.518 488.534L342.597 491.067L337.255 480.529L333.331 477.997L327.415 476.881L329.663 468.876L327.566 464.233L328.833 460.027L326.856 457.495L322.223 455.957L326.72 452.022V450.063L324.321 446.55L316.88 442.887L320.955 439.947L318.706 436.013L319.687 428.008L316.171 426.892L301.32 432.018L295.434 427.088L304.655 417.696L304.052 415.631L306.723 412.707L307.251 409.164L312.156 409.345L316.231 405.546L316.397 403.058L324.245 403.918L324.592 407.958L327.52 410.807H332.184L339.081 417.259L342.265 416.4L341.496 412.707L344.424 407.943L344.514 402.199L343.956 400.511L340.711 399.953L342.265 396.516L339.685 390.742L336.229 388.767L337.013 387.29L340.107 387.38L340.801 384.968L342.356 385.481L349.374 395.732L352.392 392.114L353.947 394.963L364.723 400.209L370.156 399.606L371.363 389.28L378.079 390.757L379.89 389.28L381.883 380.235L379.724 376.707L381.279 375.757L384.373 377.476L389.55 375.501L391.527 370.933L398.756 369.034L402.574 365.853L415.689 363.094L420.262 360.516L422.677 355.949L421.5 352.542L425.499 348.306L430.102 347.522L432.064 344.115L430.691 333.366L433.423 326.914L440.667 325.452L444.968 326.13L447.127 322.708L450.16 321.442L451.126 317.432L453.571 315.487L471.47 317.929L472.451 315.291L470.701 311.568L476.949 309.517L479.892 313.135L480.284 316.075L468.542 326.613V328.572L474.7 334.527L481.643 337.075L484.872 325.934L492.207 319.286L494.562 311.959L498.078 312.155L499.255 316.753L502.153 319.286L502.742 327.984L514.468 330.728L517.215 334.723L521.803 336.969L523.569 342.351L526.512 342.743L532.277 347.235L535.401 350.944L535.99 355.632L541.076 357.878L542.932 363.155L546.554 363.351L550.961 372.154L554.387 373.315L556.727 376.149L559.866 376.255L563.186 380.25L566.114 379.767L574.732 382.888L577.177 386.024L575.124 390.908L575.803 394.028L585.583 396.184L587.243 398.521L596.344 399.305L600.056 397.842L603.679 399.38Z" stroke="#146C4A" stroke-width="2"/>
<path d="M216.079 424.073L221.256 424.767L223.67 428.807L228.922 427.767L239.578 434.475L244.483 433.797L247.592 441.199L256.134 441.289L257.945 439.917L258.035 435.274L261.492 434.415L263.65 435.621L265.551 440.008L266.502 443.113L264.857 446.972L267.71 452.339L274.954 446.656L283.013 443.173L283.058 440.792L280.9 439.239L282.56 436.601L287.028 436.148L293.261 439.133L297.366 435.214L301.758 434.867L301.35 432.048L316.201 426.922L319.718 428.053L318.737 436.058L320.985 439.993L316.91 442.947L324.366 446.595L326.751 450.108V452.068L322.253 456.002L326.886 457.54L328.848 460.073L327.581 464.279L329.694 468.907L327.445 476.912L333.346 478.042L337.285 480.575L342.628 491.112L347.548 488.58L349.932 489.56L351.894 492.228L350.355 493.916L355.984 499.539L356.965 503.323L355.139 507.258L342.205 513.725L338.553 514.147L335.036 518.353L328.426 520.735L323.642 522.137L315.492 519.891L307.478 522.695L305.093 520.162L299.328 520.026L293.985 515.82L285.126 515.956L281.61 513.001L274.018 511.177L271.634 507.529L265.582 506.685L261.22 512.715L251.38 514.403L245.267 527.941L241.932 526.675L242.023 528.574L235.82 530.036L233.752 533.654L226.13 534.438L222.629 541.056L217.633 538.735L211.431 542.187L200.806 541.674L199.085 544.433L198.315 552.875L195.901 555.89H190.301L184.446 552.709L181.684 558.046L176.432 555.724L173.247 558.649L170.485 558.815L163.15 554.594L164.071 546.966L161.943 544.011L156.766 541.177L152.797 532.478L143.304 529.901L139.863 526.192L132.06 530.458L128.483 529.976L126.325 532.644L120.983 530.157L114.78 539.187L109.603 539.096L105.468 532.81L99.0837 535.132L93.907 530.398L89.2133 534.363L85.9685 533.669L83.2217 537.709L81.0635 537.875L79.2524 533.835L71.8421 532.282L69.3368 537.197L66.6051 538.418L58.3798 532.117L50.7129 529.539L44.3289 531.604L38.9863 530.308L32.7833 536.941L21.9169 538.312L15.714 534.604L14.7783 538.388L12.7861 540.016L9.85818 537.694L11.5787 530.805L8.39423 521.338L7.35286 511.871L3.12702 506.579V500.956L1.45178 497.956L8.78663 489.65L5.3305 484.781L7.30758 479.007L11.79 473.881L9.37522 470.263L10.1449 469.223L13.0728 472.675L17.9024 473.972L19.6229 476.64L20.0606 483.017L23.9393 483.62L26.7011 481.253L32.7381 481.042L27.9991 471.484L29.3725 457.012L30.5799 456.063L36.0131 458.309L43.6045 455.294L47.9963 456.5L50.9242 451.766L56.78 448.329L84.414 441.349L92.5185 446.083L98.2989 451.766L103.128 451.254L105.453 455.565L113.648 455.656L120.107 458.158L121.224 460.826L128.031 464.535L143.727 469.871L144.24 473.052L135.531 479.339L134.928 484.509L137.252 486.575L137.765 479.776L142.082 479.173L148.632 475.464L151.393 459.485L166.908 455.701L168.553 452.852L168.206 449.143L174.726 448.495L186.83 442.691L188.188 439.163L185.427 434.52L186.121 432.877L195.78 431.837L200.956 428.656L204.745 424.013L216.079 424.073ZM196.263 437.746L195.161 436.299L193.999 437.746L195.342 441.877L196.263 437.746ZM263.952 443.46L261.084 442.631V444.515L263.574 444.892L263.952 443.46ZM192.128 465.771L193.878 468.213L200.624 470.188L202.134 472.223L200.096 474.786L202.134 478.675L198.346 482.339L196.021 487.751L201.077 489.906L202.36 484.736L203.93 485.082L204.518 488.746L209.936 487.992L213.543 483.982L212.728 480.032L205.228 479.504L205.107 478.404L207.899 476.203L205.861 472.721L211.732 469.585L211.672 467.022L204.216 469.932L201.832 460.51L198.451 458.007L195.131 448.48L191.871 446.912L190.301 447.786L191.75 451.163L192.128 465.771ZM275.407 478.359L280.885 479.082L282.334 475.781L274.471 469.268L273.339 470.61L274.577 474.017L268.479 476.806L268.072 478.464L271.286 481.253L275.407 478.359ZM138.233 491.067L141.161 499.313L146.353 498.183L147.968 500.188L147.047 505.599L161.46 492.816L160.811 490.675L159.106 490.328L150.714 491.504L139.139 489.228L138.233 491.067Z" stroke="#146C4A" stroke-width="2"/>
<path d="M292.778 68.6923L297.471 72.1445L305.138 73.8631L310.481 78.265L316.095 78.6871L319.793 76.1846L327.037 75.7625L338.945 79.3353L354.611 88.7271L365.221 87.1744L380.992 93.9733L387.98 103.968L398.922 107.586L421.092 106.893L428.85 109.908L439.112 111.023L441.135 120.837L445.285 122.827L457.827 124.983L462.098 123.023L463.728 123.852L465.811 120.882L466.701 115.094L468.784 114.641L471.455 119.103L476.647 118.35L478.428 120.144V122.963L473.236 131.118L472.934 135.867L471.153 137.947L460.015 141.807L453.329 139.576L447.081 140.028L443.082 143.585L436.834 141.957L431.491 143.887L427.627 143.284L420.941 149.073L414.406 146.992L413.214 148.033L412.776 155.751L414.844 158.57L419.749 160.349V167.027L416.036 168.655L411.584 168.218L410.392 165.987L407.419 167.917L404.008 165.836L400.733 170.299L396.582 172.228L395.239 176.675L389.746 177.565H387.663L378.215 170.299L370.639 166.59L363.5 167.178L357.116 163.771L354.445 164.058L349.993 160.651L342.703 161.54L339.881 157.228L335.127 155.012L324.728 153.972L323.098 155.314L319.385 165.701V173.555L317.605 176.223L312.7 178.017L311.356 176.374L305.712 176.223L300.369 172.228L286.107 165.701L269.611 161.992L265.31 157.681L258.322 154.862L238.868 159.309L229.496 155.751L222.221 155.314L218.901 156.927L216.169 153.354L213.498 152.917L202.632 144.822L195.221 144.053L188.143 149.48L183.314 147.324L178.922 148.621L175.39 141.128L178.227 133.802L181.155 133.199L185.517 128.435L182.74 124.063L186.77 121.41L188.324 115.033L198.844 117.611L198.406 113.48L191.418 105.295L191.343 101.42L195.131 98.8425L203.235 100.305L209.272 98.5863L209.438 87.687L213.408 86.7824L216.517 84.0237L219.007 79.7273L219.444 75.3254H228.847L233.329 70.9385L242.038 71.7978L248.497 69.642L256.436 73.9535L262.427 68.2702L268.555 68.8732L279.421 64.9084L292.778 68.6923Z" stroke="#146C4A" stroke-width="2"/>
<path d="M680.121 121.666L685.086 124.757L692.904 120.053L704.314 127.561L707 127.199L707.242 130.485L709.807 130.953L710.155 132.822L719.285 131.646L721.745 126.973L730.514 128.963L729.11 136.907L732.506 153.972L738.483 157.831V161.917L745.501 165.309L742.693 174.776L739.524 176.298L736.611 182.841L741.169 184.002L754.616 179.917L764.668 184.062L773.089 184.303L776.017 187.454L783.156 186.987L791.109 192.127L796.497 193.65L798.837 196.228L801.75 195.052L802.459 197.856L798.942 201.368L798.007 206.268L785.148 207.444L783.035 211.891L783.262 218.554L783.729 220.891L794.505 221.358L802.338 220.529L805.975 217.137L810.292 219.594L811.71 225.097L807.017 230.931L811.469 235.604L808.888 245.599L811.001 245.961L813.461 243.624L818.019 248.523L837.79 246.895L844.114 250.272L849.849 246.428L864.669 248.297L871.793 246.895L877.996 240.699L880.109 247.121L877.181 255.533L876.366 257.177L870.283 256.935L873.785 260.101L877.06 272.372L881.044 274.468L887.368 275.056L888.877 277.739L885.602 288.261L879.867 292.829L880.109 295.166L892.394 290.251L907.607 287.206L913.1 290.025L911.229 292.241V297.261L915.213 300.894L923.514 299.251L934.637 299.839L946.575 303.924L958.045 297.261L964.595 296.327L967.161 297.382L965.757 301.241L967.749 306.502L973.469 309.502L972.202 314.658L967.266 318.879L959.962 319.829L955.132 324.381L949.865 321.035L941.036 320.944L934.441 318.532L930.622 321.879L925.385 323.703L923.303 326.537L919.228 325.829L915.213 328.783L892.831 330.246L890.764 329.643L890.96 327.653L879.988 324.728L870.676 329.462L865.243 326.281L856.61 327.743L852.218 326.115L851.101 322.844L847.223 320.944L840.582 320.16L838.514 320.251L831.421 326.522L825.671 326.718L823.935 333.306L820.313 333.381L819.634 335.447L815.408 336.924L813.416 343.466L813.944 351.381L811.182 352.843L811.635 355.376L809.537 359.567L802.64 364.481L802.821 368.521L805.492 372.396L802.217 379.632L802.7 382.481L792.121 394.104L788.77 406.842L785.752 410.551L780.137 413.822L779.187 416.581L770.478 418.39L768.079 423.214L766.086 421.571L765.83 416.144L758.329 413.385L756.171 413.641L748.459 420.365L738.558 418.465L734.151 421.917L731.223 418.556L728.371 417.862L723.466 425.023L723.632 428.897L722.364 430.058L720.01 428.294L714.32 428.37L711.483 426.048L707.166 429.063L698.367 431.385L695.349 419.159L696.39 413.385L699.922 409.345L701.039 405.38L692.391 397.631L690.58 382.556L689.463 379.888L686.007 378.169L675.322 384.546L668.424 392.551L659.535 396.516L655.581 400.3L654.977 402.878L652.004 403.526L646.148 408.696L640.111 407.144L631.66 409.134L625.532 406.722L621.835 407.491L607.557 398.099L609.278 398.883L587.485 398.521L585.824 396.184L576.045 394.028L576.618 384.456L570.37 380.747L563.427 380.25L560.092 376.255L556.968 376.149L554.614 373.315L551.188 372.154L546.796 363.351L543.174 363.155L541.317 357.878L536.231 355.632L535.643 350.944L532.519 347.235L526.738 342.743L523.81 342.351L522.044 336.969L517.456 334.723L519.041 329.085L525.787 322.768V320.522L519.252 315.638L517.622 310.527L518.634 308.492L524.761 307.482L531.085 300.548L552.123 299.93L551.097 294.427L547.822 289.528L548.652 286.467L557.828 284.432L563.956 280.362L572.528 279.126L576.211 275.87L581.101 275.674L587.847 270.367L589.477 260.779L592.948 252.006L592.329 244.679L594.985 237.941H589.265L578.248 244.468L563.759 246.307L559.669 251.403L548.848 247.528L538.435 248.538L535.371 250.589L527.825 247.317L518.437 247.528L507.707 238.86L503.813 228.428L506.681 227.509L515.736 230.946L520.098 235.529L518.845 240.353L521.139 243.443L522.859 243.322L524.233 239.885L522.739 230.147L523.539 224.192L513.563 221.554L510.801 215.705L510.574 208.71L508.748 207.338L498.983 207.564L495.422 204.248L490.954 205.62L484.993 201.836L492.539 192.414L496.991 191.389L505.896 192.414L510.363 191.555L512.929 188.992L519.796 197.886L528.534 198.233L525.968 205.605L528.187 208.167L534.541 197.042L543.113 196.695L544.547 188.389L548.667 186.323L549.694 183.761L548.32 178.62L549.18 176.917L556.213 171.942L549.014 166.635L551.927 153.098H568.393L584.27 149.42L588.556 150.098L596.268 142.229L604.494 140.344L607.24 141.023L608.78 139.832L608.101 135.882L600.902 123.551L614.107 121.666L621.819 122.872L625.245 120.988L628.671 124.078L632.958 123.897L637.591 120.641L641.017 122.872L645.816 121.666L653.362 124.41L662.282 122.526L664.002 120.309L667.941 123.038L676.167 121.847L678.747 119.782L680.287 120.129L680.121 121.666Z" stroke="#146C4A" stroke-width="2"/>
<path d="M973.469 309.502L967.749 306.502L965.757 301.241L967.161 297.382L964.595 296.327L958.045 297.261L946.575 303.924L934.637 299.839L923.514 299.251L915.213 300.894L911.229 297.261V292.241L913.1 290.025L907.607 287.206L892.394 290.251L880.109 295.166L879.867 292.829L885.602 288.261L888.877 277.739L887.368 275.056L881.044 274.468L877.06 272.372L873.785 260.101L870.283 256.935L876.366 257.177L877.181 255.533L880.109 247.121L877.996 240.699L871.793 246.895L864.669 248.297L849.849 246.428L844.114 250.272L837.79 246.895L818.019 248.523L813.461 243.624L811.001 245.961L808.888 245.599L811.469 235.604L807.017 230.931L811.71 225.097L810.292 219.594L805.975 217.137L802.338 220.529L794.505 221.358L783.729 220.891L783.261 218.554L783.035 211.891L785.148 207.444L798.007 206.268L798.942 201.368L802.459 197.856L801.75 195.052L798.837 196.228L796.497 193.65L791.109 192.127L783.156 186.987L776.017 187.454L773.089 184.303L764.668 184.062L754.616 179.917L741.169 184.002L736.611 182.841L739.524 176.299L742.693 174.776L745.501 165.309L738.483 161.917V157.832L732.506 153.972L729.11 136.907L730.514 128.963L721.745 126.973L719.285 131.646L710.155 132.822L709.807 130.953L707.242 130.485L707 127.199L704.314 127.561L692.904 120.053L698.458 116.028L702.065 109.682L711.664 107.797L711.845 99.4003L719.044 101.631L728.809 100.953L741.501 96.325L751.1 96.6718L752.654 95.6466L753.167 91.697L772.546 77.4811L782.824 76.2902L783.005 72.8531L795.864 74.5716L806.141 72.1747L813.521 73.1998L830.666 68.4059L850.724 67.0341L852.444 66.1748L854.678 58.984L864.88 51.7027L879.626 53.7077L891.609 49.758L899.185 49.5017L903.502 51.8233L921.175 53.7981L925.566 53.0293L932.388 57.0694L941.051 58.4563L945.111 61.9839L950.107 59.994L955.57 62.0744L964.459 61.9839L968.051 60.597L968.64 58.788L985.03 61.7729L989.422 57.4614L993.406 58.7126L1002.81 55.8634L1012.11 62.7075L1017.72 64.1397L1020.23 67.6672L1025.9 66.6723L1031.6 67.6672L1033.84 70.0792L1038.23 69.1747L1048.73 73.2149L1058.45 73.5616L1062.08 75.3706L1078.03 70.2903L1075.84 76.456L1079.28 87.1744L1090.31 98.6315L1095.52 99.7471L1095.7 101.556L1112.09 119.646L1124.53 120.415L1128.66 117.144L1149.6 122.737L1159.77 123.174L1162.14 130.229L1166.92 136.169L1173.05 137.465L1174.82 140.646L1178.69 142.711L1178 147.204L1182.83 155.631L1187.28 153.912L1193.35 157.093L1194.56 166.138L1193.09 172.681L1196.53 177.505L1196.07 178.982L1189.95 177.851L1181.62 181.424L1168.52 179.886L1151.27 181.605L1148.16 183.58L1147.66 189.097L1139.54 204.685L1130.67 215.705L1123.24 217.514L1109.68 217.423L1107.73 215.599L1109.81 214.936L1111.4 211.107L1109.53 208.454L1104.11 207.866L1099.63 210.112L1096.18 214.408L1090.22 214.589L1079.63 225.263L1070.92 225.775L1067.04 229.574L1060.14 231.986L1059.01 234.564L1049.44 237.142L1039.2 246.88L1024.19 251.101L1022.81 256.272L1018.32 261.428L1009.01 260.825L1002.81 267.292L990.825 270.729L989.784 277.453L991.852 279.865L992.289 285.804L990.041 287.176L989.437 290.885L984.879 291.397L977.107 298.558L973.469 309.502Z" stroke="#146C4A" stroke-width="2"/>
</svg>
