<svg width="28" height="27" viewBox="0 0 28 27" fill="none" xmlns="http://www.w3.org/2000/svg">
<path d="M24.3412 14.893C24.0423 14.893 23.7298 14.7979 23.4308 14.7299C22.8255 14.5965 22.2306 14.4194 21.6508 14.2C21.0204 13.9707 20.3275 13.9826 19.7054 14.2334C19.0833 14.4843 18.5759 14.9564 18.2809 15.5588L17.982 16.1703C16.6585 15.434 15.4424 14.5196 14.3676 13.4527C13.3006 12.3779 12.3862 11.1617 11.6499 9.83822L12.2206 9.45775C12.8231 9.16278 13.2952 8.65541 13.546 8.0333C13.7969 7.41118 13.8088 6.71827 13.5795 6.0879C13.3637 5.5069 13.1867 4.91226 13.0495 4.30786C12.9816 4.00892 12.9272 3.6964 12.8865 3.38387C12.7215 2.42675 12.2201 1.55999 11.4728 0.939694C10.7254 0.319394 9.78117 -0.0136884 8.81003 0.000431155H4.7336C4.148 -0.00506733 3.56808 0.115677 3.03334 0.354443C2.49859 0.593209 2.02157 0.944391 1.63474 1.38408C1.24791 1.82378 0.960368 2.34165 0.791676 2.90246C0.622985 3.46327 0.577108 4.05384 0.65717 4.63397C1.38106 10.3265 3.98086 15.6157 8.04591 19.666C12.111 23.7163 17.4095 26.2968 23.1047 27H23.6211C24.6231 27.0015 25.5905 26.6338 26.3387 25.9673C26.7686 25.5828 27.112 25.1115 27.3462 24.5845C27.5804 24.0574 27.7002 23.4867 27.6975 22.91V18.8335C27.6809 17.8897 27.3371 16.9809 26.7251 16.2622C26.113 15.5436 25.2704 15.0596 24.3412 14.893ZM25.0206 23.0459C25.0204 23.2388 24.9791 23.4295 24.8994 23.6052C24.8198 23.7809 24.7036 23.9376 24.5586 24.065C24.4073 24.1968 24.2298 24.2952 24.0378 24.3537C23.8458 24.4122 23.6436 24.4296 23.4444 24.4047C18.3555 23.7522 13.6287 21.4241 10.0095 17.7877C6.39026 14.1512 4.08465 9.41337 3.45632 4.32145C3.43469 4.12241 3.45365 3.92105 3.51203 3.72954C3.57042 3.53803 3.66703 3.36034 3.79602 3.20722C3.92336 3.06228 4.0801 2.94612 4.25581 2.86646C4.43153 2.7868 4.6222 2.74547 4.81513 2.74523H8.89156C9.20755 2.7382 9.5161 2.84154 9.76411 3.03747C10.0121 3.2334 10.1841 3.50965 10.2504 3.81869C10.3047 4.1901 10.3727 4.55698 10.4542 4.91932C10.6112 5.63561 10.8201 6.33953 11.0792 7.02548L9.17691 7.90871C9.01426 7.98334 8.86795 8.08936 8.74638 8.22069C8.62482 8.35201 8.53039 8.50606 8.46852 8.67398C8.40666 8.8419 8.37857 9.02039 8.38588 9.1992C8.39318 9.37801 8.43574 9.55361 8.51109 9.71593C10.4667 13.9048 13.8339 17.272 18.0228 19.2276C18.3536 19.3635 18.7246 19.3635 19.0555 19.2276C19.2249 19.167 19.3807 19.0733 19.5136 18.952C19.6466 18.8307 19.7541 18.6842 19.83 18.521L20.6724 16.6187C21.3749 16.8699 22.0918 17.0786 22.8194 17.2437C23.1817 17.3253 23.5486 17.3932 23.92 17.4476C24.229 17.5139 24.5053 17.6858 24.7012 17.9338C24.8972 18.1818 25.0005 18.4904 24.9935 18.8064L25.0206 23.0459Z" fill="#146C4A"/>
</svg>
