<svg width="25" height="25" viewBox="0 0 25 25" fill="none" xmlns="http://www.w3.org/2000/svg">
<path d="M24.5284 22.1969L19.508 17.2279C20.8707 15.4197 21.6883 13.1843 21.6883 10.7639C21.6883 4.82665 16.8256 0 10.8441 0C4.86265 0 0 4.82665 0 10.7639C0 16.7011 4.86265 21.5277 10.8441 21.5277C13.1966 21.5277 15.3769 20.7731 17.1556 19.5059L22.1903 24.5034C22.5059 24.8167 22.9362 24.9875 23.3522 24.9875C23.7682 24.9875 24.1985 24.8309 24.5141 24.5034C25.1596 23.877 25.1596 22.8376 24.5284 22.1969ZM10.8441 18.253C6.68435 18.253 3.29914 14.8929 3.29914 10.7639C3.29914 6.63487 6.68435 3.27472 10.8441 3.27472C15.0039 3.27472 18.3891 6.63487 18.3891 10.7639C18.3891 14.8929 15.0039 18.253 10.8441 18.253Z" fill="#6F6F6F"/>
</svg>
