<svg width="23" height="25" viewBox="0 0 23 25" fill="none" xmlns="http://www.w3.org/2000/svg">
<path d="M12.5291 0.654785C14.0722 0.654785 15.4576 0.654785 16.8461 0.654785C17.2667 4.11859 19.3942 5.94042 23 6.41619C23 7.72744 23 9.01549 23 10.3935C20.8106 10.4863 18.8747 9.80457 16.9791 8.66737C16.9512 8.95457 16.9141 9.16054 16.9141 9.36651C16.911 11.8962 16.9234 14.4288 16.9079 16.9585C16.8863 21.2287 13.6269 24.3444 8.89855 24.6374C5.1227 24.8695 1.33757 21.7828 0.740732 17.9883C0.029474 13.454 4.11457 9.21856 8.98823 9.43904C9.25418 9.45064 9.51394 9.49996 9.82009 9.53767C9.82009 10.8808 9.82009 12.1805 9.82009 13.5701C9.58816 13.5701 9.35932 13.5788 9.13358 13.5672C6.93177 13.4569 5.17218 14.8871 5.09177 16.8598C5.01756 18.7397 6.59469 20.3671 8.56148 20.4368C10.7849 20.5151 12.5012 19.053 12.5105 16.9701C12.5383 11.9107 12.5229 6.84844 12.5229 1.78618C12.5291 1.42645 12.5291 1.06383 12.5291 0.654785Z" fill="white"/>
</svg>
