<svg width="36" height="36" viewBox="0 0 36 36" fill="none" xmlns="http://www.w3.org/2000/svg">
<path fill-rule="evenodd" clip-rule="evenodd" d="M30.757 5.22858C27.3692 1.86071 22.8692 0 18.0748 0C8.19626 0 0.154206 8.00103 0.149533 17.8349C0.149533 20.9795 0.971963 24.0496 2.54206 26.7523L0 36L9.5 33.5206C12.1168 34.944 15.0654 35.6883 18.0654 35.693H18.0748C27.9533 35.693 35.9953 27.6919 36 17.8535C36.0047 13.0854 34.1402 8.60576 30.757 5.22858ZM18.0748 32.6786H18.0701C15.3972 32.6786 12.7757 31.9623 10.486 30.6133L9.94392 30.2923L4.30374 31.7622L5.80841 26.2918L5.45327 25.7336C3.96262 23.3705 3.17757 20.6399 3.17757 17.8395C3.18224 9.66171 9.86448 3.01434 18.0794 3.01434C22.0607 3.01434 25.7991 4.55873 28.6121 7.36374C31.4252 10.1641 32.972 13.8902 32.972 17.8535C32.972 26.0266 26.2897 32.6786 18.0748 32.6786ZM26.2477 21.5749C26.6963 21.7982 26.9953 21.9098 27.1075 22.0959C27.2196 22.2819 27.2196 23.1751 26.8458 24.2171C26.472 25.2591 24.6822 26.208 23.8224 26.3383C23.0514 26.4546 22.0748 26.5011 21 26.1615C20.3505 25.9568 19.514 25.6824 18.4486 25.2219C13.9579 23.2914 11.0234 18.7885 10.7991 18.4908C10.5748 18.193 8.97196 16.0765 8.97196 13.8809C8.97196 11.6899 10.1308 10.6107 10.5374 10.1641C10.9486 9.71754 11.4346 9.60589 11.7336 9.60589C12.0327 9.60589 12.3318 9.60589 12.5935 9.61985C12.8692 9.6338 13.2383 9.51751 13.6028 10.3827C13.9766 11.2759 14.8738 13.4715 14.986 13.6901C15.0981 13.9134 15.1729 14.1739 15.0234 14.4716C14.8738 14.7694 14.7991 14.9554 14.5748 15.2159C14.3505 15.4764 14.1028 15.7974 13.9019 15.9974C13.6776 16.2207 13.4439 16.4626 13.7056 16.9045C13.9673 17.3511 14.8645 18.8117 16.1963 19.9933C17.9065 21.5098 19.3505 21.9796 19.7991 22.2029C20.2477 22.4262 20.5093 22.3889 20.771 22.0912C21.0327 21.7935 21.8925 20.7887 22.1916 20.3422C22.4907 19.8956 22.7897 19.97 23.2009 20.1189C23.5981 20.2724 25.7991 21.3469 26.2477 21.5749Z" fill="white"/>
</svg>
