<svg width="36" height="25" viewBox="0 0 36 25" fill="none" xmlns="http://www.w3.org/2000/svg">
<path d="M35.0428 5.83008C35.0428 5.83008 34.7026 3.47921 33.6605 2.44331C32.3428 1.08606 30.8615 1.0776 30.1811 1.0015C25.3193 0.654785 18.0246 0.654785 18.0246 0.654785H18.0117C18.0117 0.654785 10.7169 0.654785 5.85519 1.0015C5.17481 1.0776 3.69346 1.08606 2.37145 2.44331C1.32934 3.47921 0.989152 5.83008 0.989152 5.83008C0.989152 5.83008 0.644653 8.59108 0.644653 11.3521V13.9397C0.644653 16.7007 0.993458 19.4617 0.993458 19.4617C0.993458 19.4617 1.33365 21.8126 2.37576 22.8485C3.69777 24.2058 5.43318 24.1635 6.2083 24.3072C8.99013 24.5694 18.0203 24.6497 18.0203 24.6497C18.0203 24.6497 25.3193 24.637 30.1854 24.2945C30.8658 24.2142 32.3428 24.2058 33.6648 22.8485C34.7069 21.8126 35.0471 19.4617 35.0471 19.4617C35.0471 19.4617 35.3959 16.7007 35.3959 13.9397V11.3521C35.3916 8.59108 35.0428 5.83008 35.0428 5.83008ZM14.4289 17.077V7.49175L23.8165 12.3034L14.4289 17.077Z" fill="white"/>
</svg>
